<svg xmlns="http://www.w3.org/2000/svg" xmlns:xlink="http://www.w3.org/1999/xlink" version="1.1" x="0px" y="0px" viewBox="0 0 100 115" enable-background="new 0 0 100 100" xml:space="preserve"><g><path d="M31.4,71.4c-6.4,0-11.6,5.2-11.6,11.6c0,6.4,5.2,11.6,11.6,11.6S43,89.4,43,83C43,76.6,37.8,71.4,31.4,71.4z M31.4,89.6   c-3.6,0-6.6-3-6.6-6.6s3-6.6,6.6-6.6s6.6,3,6.6,6.6S35.1,89.6,31.4,89.6z"/><path d="M67.7,71.9c-6.4,0-11.6,5.2-11.6,11.6c0,6.4,5.2,11.6,11.6,11.6s11.6-5.2,11.6-11.6C79.3,77,74.1,71.9,67.7,71.9z M67.7,90   c-3.6,0-6.6-3-6.6-6.6s3-6.6,6.6-6.6s6.6,3,6.6,6.6S71.3,90,67.7,90z"/><path d="M4,37v9h1.6l6.8,35H17c1.1-7,7.1-12.5,14.5-12.5c7.3,0,13.4,5.5,14.5,12.5h7.4c1.2-7,7.2-12,14.4-12s13.2,5,14.4,12h5.5   l6.8-35H96v-9H4z"/><path d="M9.8,34.3c0.2,0,0.5-0.1,0.7-0.3L28,16.5c0.4-0.4,0.4-1,0-1.4c-0.4-0.4-1-0.4-1.4,0L9.1,32.6c-0.4,0.4-0.4,1,0,1.4   C9.3,34.2,9.6,34.3,9.8,34.3z"/><path d="M15.5,34c0.2,0.2,0.4,0.3,0.7,0.3s0.5-0.1,0.7-0.3L41.4,9.5c0.4-0.4,0.4-1,0-1.4c-0.4-0.4-1-0.4-1.4,0L15.5,32.6   C15.2,33,15.2,33.6,15.5,34z"/><path d="M22,34c0.2,0.2,0.4,0.3,0.7,0.3s0.5-0.1,0.7-0.3l23.9-23.9c0.4-0.4,0.4-1,0-1.4c-0.4-0.4-1-0.4-1.4,0L22,32.6   C21.6,33,21.6,33.6,22,34z"/><path d="M28.4,34c0.2,0.2,0.4,0.3,0.7,0.3c0.2,0,0.5-0.1,0.7-0.3L57.1,6.6c0.4-0.4,0.4-1,0-1.4c-0.4-0.4-1-0.4-1.4,0L28.4,32.6   C28,33,28,33.6,28.4,34z"/><path d="M34.8,34c0.2,0.2,0.4,0.3,0.7,0.3c0.2,0,0.5-0.1,0.7-0.3L61.9,8.2c0.4-0.4,0.4-1,0-1.4c-0.4-0.4-1-0.4-1.4,0L34.8,32.6   C34.4,33,34.4,33.6,34.8,34z"/><path d="M41.2,34c0.2,0.2,0.4,0.3,0.7,0.3c0.2,0,0.5-0.1,0.7-0.3l22.3-22.3c0.4-0.4,0.4-1,0-1.4c-0.4-0.4-1-0.4-1.4,0L41.2,32.6   C40.8,33,40.8,33.6,41.2,34z"/><path d="M47.4,34c0.2,0.2,0.4,0.3,0.7,0.3s0.5-0.1,0.7-0.3l19.6-19.6c0.4-0.4,0.4-1,0-1.4c-0.4-0.4-1-0.4-1.4,0L47.4,32.6   C47,33,47,33.6,47.4,34z"/><path d="M53.8,34c0.2,0.2,0.4,0.3,0.7,0.3s0.5-0.1,0.7-0.3l17.4-17.4c0.4-0.4,0.4-1,0-1.4c-0.4-0.4-1-0.4-1.4,0L53.8,32.6   C53.4,33,53.4,33.6,53.8,34z"/><path d="M60.2,34c0.2,0.2,0.4,0.3,0.7,0.3c0.2,0,0.5-0.1,0.7-0.3l15.3-15.3c0.4-0.4,0.4-1,0-1.4c-0.4-0.4-1-0.4-1.4,0L60.2,32.6   C59.8,33,59.8,33.6,60.2,34z"/><path d="M66.6,34c0.2,0.2,0.4,0.3,0.7,0.3c0.2,0,0.5-0.1,0.7-0.3l12.2-12.2c0.4-0.4,0.4-1,0-1.4c-0.4-0.4-1-0.4-1.4,0L66.6,32.6   C66.2,33,66.2,33.6,66.6,34z"/><path d="M73,34c0.2,0.2,0.4,0.3,0.7,0.3c0.2,0,0.5-0.1,0.7-0.3l9.8-9.8c0.4-0.4,0.4-1,0-1.4c-0.4-0.4-1-0.4-1.4,0L73,32.6   C72.6,33,72.6,33.6,73,34z"/><path d="M79.4,34c0.2,0.2,0.4,0.3,0.7,0.3s0.5-0.1,0.7-0.3l8.5-8.5c0.4-0.4,0.4-1,0-1.4c-0.4-0.4-1-0.4-1.4,0l-8.5,8.5   C79,33,79,33.6,79.4,34z"/><path d="M85.8,34c0.2,0.2,0.4,0.3,0.7,0.3s0.5-0.1,0.7-0.3l4.4-4.4c0.4-0.4,0.4-1,0-1.4c-0.4-0.4-1-0.4-1.4,0l-4.4,4.4   C85.4,33,85.4,33.6,85.8,34z"/></g></svg>