<svg xmlns="http://www.w3.org/2000/svg" xmlns:xlink="http://www.w3.org/1999/xlink" version="1.1" x="0px" y="0px" viewBox="0 0 100 100" enable-background="new 0 0 100 100" xml:space="preserve"><g><path d="M65.852,94.149c0.026-0.068,0.048-0.136,0.059-0.209c0.009-0.06,0.008-0.116,0.006-0.177c0-0.042,0.011-0.084,0.004-0.127   l-3.506-23.447c0-0.001,0-0.002,0-0.004l-5.421-36.246c-0.006-0.038-0.027-0.069-0.036-0.107c-0.016-0.058-0.032-0.111-0.057-0.164   c-0.03-0.067-0.068-0.126-0.111-0.184c-0.032-0.043-0.062-0.086-0.102-0.125c-0.059-0.057-0.126-0.102-0.195-0.143   c-0.032-0.02-0.056-0.05-0.091-0.065c-0.011-0.006-0.022-0.004-0.032-0.009c-0.087-0.036-0.182-0.052-0.277-0.063   c-0.034-0.004-0.068-0.019-0.104-0.02c-0.006,0-0.012-0.003-0.019-0.003h-9.156h-9.157c-0.006,0-0.01,0.003-0.016,0.003   c-0.041,0.001-0.079,0.017-0.119,0.021c-0.091,0.014-0.181,0.027-0.263,0.062c-0.011,0.005-0.022,0.003-0.034,0.009   c-0.035,0.016-0.058,0.046-0.09,0.065c-0.07,0.041-0.138,0.086-0.196,0.143c-0.038,0.039-0.068,0.082-0.101,0.125   c-0.044,0.058-0.081,0.116-0.111,0.184c-0.024,0.053-0.041,0.106-0.057,0.164c-0.01,0.038-0.03,0.069-0.036,0.107l-5.421,36.246   c0,0.002,0,0.003,0,0.004l-3.507,23.447c-0.007,0.043,0.005,0.085,0.004,0.127c-0.001,0.061-0.003,0.117,0.006,0.177   c0.012,0.073,0.034,0.141,0.06,0.209c0.019,0.05,0.035,0.1,0.062,0.148c0.042,0.074,0.099,0.138,0.158,0.199   c0.025,0.026,0.038,0.06,0.066,0.084c0.009,0.006,0.017,0.008,0.024,0.014c0.045,0.035,0.098,0.057,0.147,0.085   c0.062,0.033,0.118,0.07,0.183,0.091c0.01,0.003,0.018,0.011,0.028,0.014l18.083,5.176h0.002c0.009,0.003,0.017,0.003,0.023,0.005   C46.64,99.987,46.727,100,46.812,100h0.001h0.001l0,0l0,0c0.087,0,0.174-0.013,0.259-0.035c0.008-0.002,0.016-0.002,0.022-0.004   c0.001-0.001,0.002-0.001,0.004-0.001l18.083-5.176c0.011-0.003,0.018-0.011,0.027-0.014c0.065-0.021,0.123-0.058,0.184-0.091   c0.05-0.028,0.103-0.05,0.147-0.085c0.007-0.006,0.016-0.008,0.024-0.014c0.028-0.024,0.04-0.058,0.066-0.084   c0.059-0.062,0.115-0.125,0.158-0.199C65.817,94.249,65.832,94.199,65.852,94.149z M38.167,37.681l2.183,4.753l-3.797,6.043   L38.167,37.681z M57.074,48.477l-3.798-6.043l2.184-4.753L57.074,48.477z M50.928,42.587l-3.079,6.704V37.686L50.928,42.587z    M47.849,69.031V56.498l4.473,5.083L47.849,69.031z M53.757,63.213l5.602,6.365l-10.369,1.575L53.757,63.213z M49.027,54.705   l7.82-0.665l-3.408,5.679L49.027,54.705z M48.575,52.666l3.669-7.984l4.576,7.282L48.575,52.666z M45.778,49.29l-3.079-6.703   l3.079-4.901V49.29z M45.051,52.666l-8.245-0.702l4.577-7.283L45.051,52.666z M44.6,54.705l-4.412,5.014l-3.408-5.679L44.6,54.705z    M45.778,56.499V69.03l-4.473-7.449L45.778,56.499z M44.638,71.153l-10.37-1.575l5.603-6.365L44.638,71.153z M44.677,73.253   l-6.101,7.239l-4.501-8.85L44.677,73.253z M45.778,75.158v19.489l-6.183-12.151L45.778,75.158z M47.849,75.158l6.181,7.338   l-6.181,12.151V75.158z M48.95,73.253l10.601-1.61l-4.501,8.85L48.95,73.253z M54.875,61.35l3.302-5.5l1.668,11.148L54.875,61.35z    M51.961,40.34l-3.275-5.213h5.67L51.961,40.34z M41.666,40.339l-2.394-5.212h5.668L41.666,40.339z M35.45,55.85l3.303,5.5   l-4.97,5.648L35.45,55.85z M37.129,82.211l-6.835,8.113l2.491-16.652L37.129,82.211z M38.147,84.215l6.665,13.102l-14.262-4.082   L38.147,84.215z M55.479,84.215l7.597,9.02l-14.262,4.082L55.479,84.215z M56.497,82.211l4.345-8.539l2.49,16.652L56.497,82.211z"></path><path d="M68.364,15.802c4.349-0.513,7.458-4.453,6.945-8.802c-0.513-4.348-4.452-7.456-8.801-6.944c0,0-0.702,0.083-1.915,0.307   c-0.606,0.11-1.336,0.231-2.172,0.512c-0.833,0.268-1.769,0.521-2.755,0.965c-0.979,0.467-2.047,0.896-3.085,1.577   c-0.514,0.331-1.041,0.672-1.58,1.021c-0.514,0.388-1.021,0.803-1.533,1.218c-0.25,0.213-0.503,0.428-0.756,0.646l-0.705,0.721   c-0.462,0.491-0.947,0.959-1.376,1.482c-0.84,1.069-1.645,2.154-2.296,3.32l-0.506,0.853l-0.427,0.887   c-0.262,0.6-0.562,1.166-0.768,1.769c-0.205,0.594-0.409,1.184-0.61,1.765c-0.187,0.58-0.311,1.173-0.445,1.74   c-0.145,0.565-0.244,1.129-0.312,1.684c-0.074,0.553-0.161,1.082-0.208,1.601c-0.03,1.058-0.122,2.016-0.049,2.916   c0.047,0.892,0.111,1.695,0.24,2.436c0.112,0.724,0.195,1.345,0.336,1.792c0.27,0.932,0.423,1.464,0.423,1.464   c0.062,0.215,0.225,0.4,0.451,0.482c0.378,0.136,0.792-0.061,0.928-0.438c0,0,0.188-0.521,0.516-1.434   c0.134-0.479,0.384-0.967,0.639-1.52c0.23-0.544,0.587-1.16,0.955-1.817c0.319-0.665,0.823-1.325,1.257-2.017   c0.241-0.34,0.509-0.673,0.765-1.013c0.248-0.344,0.523-0.676,0.833-0.991c0.306-0.315,0.573-0.652,0.886-0.958   c0.317-0.294,0.637-0.591,0.96-0.891c0.309-0.3,0.688-0.536,1.02-0.802l0.495-0.394l0.537-0.337   c0.361-0.212,0.677-0.465,1.05-0.635c0.356-0.176,0.712-0.351,1.063-0.523c0.342-0.171,0.714-0.28,1.05-0.421l0.499-0.199   l0.521-0.131c0.327-0.098,0.646-0.192,0.96-0.286c0.322-0.056,0.637-0.11,0.943-0.163c0.568-0.173,1.186-0.139,1.685-0.23   c0.503-0.093,1.021-0.022,1.429-0.079c0.408-0.056,0.802-0.003,1.109-0.009c0.62,0.011,0.966-0.027,0.966-0.027l0.8-0.091   L68.364,15.802z"></path><path d="M29.053,13.451c0.216-0.019,0.438-0.036,0.666-0.056c0.228,0.008,0.461,0.017,0.697,0.024   c0.248-0.017,0.498-0.004,0.747,0.033c0.251,0.033,0.521,0.037,0.782,0.089c0.523,0.1,1.09,0.183,1.633,0.372   c0.285,0.072,0.562,0.169,0.829,0.29c0.273,0.113,0.572,0.197,0.837,0.337c0.275,0.137,0.546,0.271,0.815,0.405   c0.269,0.144,0.514,0.315,0.78,0.464c0.542,0.293,0.986,0.679,1.465,1.016c0.43,0.372,0.9,0.71,1.248,1.088   c0.383,0.363,0.748,0.7,1.018,1.016c0.285,0.315,0.554,0.59,0.742,0.881c0.412,0.539,0.648,0.848,0.648,0.848   c0.087,0.111,0.224,0.186,0.376,0.187c0.263,0.001,0.477-0.211,0.478-0.474c0,0,0.002-0.389,0.004-1.067   c0.008-0.329-0.058-0.761-0.123-1.268c-0.059-0.521-0.172-1.074-0.317-1.681c-0.13-0.617-0.383-1.239-0.614-1.941   c-0.299-0.655-0.587-1.394-1.01-2.087c-0.384-0.727-0.885-1.413-1.417-2.12c-0.559-0.679-1.145-1.393-1.852-1.985   c-0.672-0.639-1.43-1.195-2.208-1.73c-0.393-0.256-0.812-0.465-1.22-0.693c-0.406-0.233-0.824-0.436-1.25-0.6   c-0.426-0.165-0.849-0.332-1.267-0.479c-0.43-0.115-0.85-0.229-1.258-0.34c-0.827-0.225-1.621-0.276-2.36-0.372   c-0.741-0.076-1.408-0.04-2.009-0.032c-0.604,0.002-1.107,0.083-1.525,0.148c-0.839,0.125-1.31,0.232-1.31,0.232   c-2.448,0.563-4.18,2.853-3.971,5.431c0.229,2.833,2.711,4.945,5.546,4.716l0.771-0.063c0,0,0.251-0.02,0.68-0.123   c0.216-0.041,0.477-0.139,0.77-0.164c0.293-0.022,0.632-0.158,0.993-0.175C28.225,13.559,28.635,13.429,29.053,13.451z"></path><path d="M80.885,27.037c-0.039-0.379-0.056-0.796-0.177-1.262c-0.12-0.462-0.239-0.96-0.476-1.466   c-0.208-0.512-0.516-1.011-0.85-1.51c-0.369-0.467-0.765-0.949-1.234-1.336c-0.457-0.412-0.977-0.729-1.484-1.034   c-0.525-0.266-1.049-0.521-1.587-0.668c-0.525-0.186-1.054-0.277-1.554-0.369c-0.511-0.042-0.986-0.112-1.44-0.095   c-0.454,0-0.875,0.029-1.259,0.082c-0.76,0.106-1.424,0.268-1.802,0.401c-0.401,0.147-0.632,0.232-0.632,0.232   c-0.066,0.025-0.123,0.081-0.146,0.156c-0.036,0.125,0.036,0.257,0.162,0.293c0,0,0.234,0.068,0.645,0.189   c0.433,0.098,0.937,0.288,1.561,0.558c0.312,0.116,0.636,0.266,0.961,0.445c0.336,0.146,0.653,0.37,0.982,0.56   c0.306,0.239,0.639,0.426,0.911,0.694c0.294,0.237,0.531,0.524,0.778,0.772c0.212,0.282,0.419,0.548,0.56,0.834   c0.18,0.258,0.271,0.549,0.375,0.805c0.094,0.263,0.183,0.507,0.217,0.76c0.087,0.229,0.083,0.483,0.127,0.698   c0.063,0.209,0.022,0.441,0.063,0.623c0.036,0.183,0.016,0.363,0.028,0.508c0.006,0.289,0.039,0.459,0.039,0.459l0.102,0.539   c0.201,1.031,1.028,1.875,2.127,2.045c1.399,0.218,2.712-0.741,2.928-2.141c0,0,0.047-0.296,0.076-0.819   C80.904,27.73,80.928,27.417,80.885,27.037z"></path></g></svg>